<?xml version="1.0" encoding="UTF-8"?>
<svg xmlns="http://www.w3.org/2000/svg" xmlns:xlink="http://www.w3.org/1999/xlink" width="216" height="216" viewBox="0 0 216 216">
<defs>
<g>
<g id="glyph-0-0">
<path d="M 3.296875 -8.671875 C 2.515625 -8.671875 1.78125 -8.3125 1.34375 -7.734375 C 0.796875 -6.953125 0.515625 -5.8125 0.515625 -4.203125 C 0.515625 -1.265625 1.46875 0.28125 3.296875 0.28125 C 5.09375 0.28125 6.078125 -1.265625 6.078125 -4.125 C 6.078125 -5.8125 5.8125 -6.9375 5.25 -7.734375 C 4.8125 -8.328125 4.109375 -8.671875 3.296875 -8.671875 Z M 3.296875 -7.734375 C 4.4375 -7.734375 5 -6.578125 5 -4.21875 C 5 -1.75 4.453125 -0.59375 3.28125 -0.59375 C 2.15625 -0.59375 1.59375 -1.796875 1.59375 -4.1875 C 1.59375 -6.578125 2.15625 -7.734375 3.296875 -7.734375 Z M 3.296875 -7.734375 "/>
</g>
<g id="glyph-0-1">
<path d="M 2.296875 -1.25 L 1.046875 -1.25 L 1.046875 0 L 2.296875 0 Z M 2.296875 -1.25 "/>
</g>
<g id="glyph-0-2">
<path d="M 3.109375 -6.1875 L 3.109375 0 L 4.15625 0 L 4.15625 -8.671875 L 3.46875 -8.671875 C 3.09375 -7.34375 2.859375 -7.15625 1.21875 -6.953125 L 1.21875 -6.1875 Z M 3.109375 -6.1875 "/>
</g>
<g id="glyph-0-3">
<path d="M 6.078125 -1.046875 L 1.59375 -1.046875 C 1.703125 -1.765625 2.09375 -2.21875 3.125 -2.859375 L 4.328125 -3.53125 C 5.515625 -4.1875 6.125 -5.078125 6.125 -6.140625 C 6.125 -6.859375 5.84375 -7.53125 5.34375 -8 C 4.84375 -8.453125 4.21875 -8.671875 3.40625 -8.671875 C 2.328125 -8.671875 1.53125 -8.296875 1.0625 -7.546875 C 0.75 -7.09375 0.625 -6.546875 0.59375 -5.671875 L 1.65625 -5.671875 C 1.6875 -6.265625 1.765625 -6.609375 1.90625 -6.90625 C 2.1875 -7.421875 2.734375 -7.75 3.375 -7.75 C 4.328125 -7.75 5.046875 -7.0625 5.046875 -6.125 C 5.046875 -5.421875 4.65625 -4.828125 3.90625 -4.390625 L 2.796875 -3.75 C 1.015625 -2.71875 0.5 -1.90625 0.40625 -0.015625 L 6.078125 -0.015625 Z M 6.078125 -1.046875 "/>
</g>
<g id="glyph-0-4">
<path d="M 2.65625 -4 L 3.234375 -4 C 4.375 -4 4.984375 -3.453125 4.984375 -2.40625 C 4.984375 -1.3125 4.328125 -0.65625 3.234375 -0.65625 C 2.078125 -0.65625 1.515625 -1.25 1.4375 -2.515625 L 0.390625 -2.515625 C 0.4375 -1.828125 0.546875 -1.375 0.75 -0.984375 C 1.203125 -0.140625 2.03125 0.28125 3.1875 0.28125 C 4.9375 0.28125 6.078125 -0.78125 6.078125 -2.421875 C 6.078125 -3.53125 5.65625 -4.125 4.625 -4.484375 C 5.421875 -4.8125 5.8125 -5.40625 5.8125 -6.28125 C 5.8125 -7.78125 4.84375 -8.671875 3.234375 -8.671875 C 1.515625 -8.671875 0.59375 -7.71875 0.5625 -5.875 L 1.625 -5.875 C 1.625 -6.40625 1.6875 -6.703125 1.8125 -6.96875 C 2.046875 -7.46875 2.578125 -7.75 3.234375 -7.75 C 4.171875 -7.75 4.734375 -7.1875 4.734375 -6.25 C 4.734375 -5.640625 4.53125 -5.265625 4.0625 -5.0625 C 3.765625 -4.9375 3.390625 -4.890625 2.65625 -4.890625 Z M 2.65625 -4 "/>
</g>
<g id="glyph-0-5">
<path d="M 0.84375 -6.28125 L 0.84375 0 L 1.84375 0 L 1.84375 -3.953125 C 1.84375 -4.859375 2.515625 -5.59375 3.328125 -5.59375 C 4.0625 -5.59375 4.484375 -5.140625 4.484375 -4.328125 L 4.484375 0 L 5.5 0 L 5.5 -3.953125 C 5.5 -4.859375 6.15625 -5.59375 6.96875 -5.59375 C 7.703125 -5.59375 8.140625 -5.125 8.140625 -4.328125 L 8.140625 0 L 9.140625 0 L 9.140625 -4.71875 C 9.140625 -5.84375 8.5 -6.46875 7.3125 -6.46875 C 6.484375 -6.46875 5.96875 -6.21875 5.390625 -5.515625 C 5.015625 -6.1875 4.515625 -6.46875 3.703125 -6.46875 C 2.859375 -6.46875 2.296875 -6.15625 1.765625 -5.40625 L 1.765625 -6.28125 Z M 0.84375 -6.28125 "/>
</g>
<g id="glyph-0-6">
</g>
<g id="glyph-0-7">
<path d="M 3.046875 -6.28125 L 2.015625 -6.28125 L 2.015625 -8.015625 L 1.015625 -8.015625 L 1.015625 -6.28125 L 0.171875 -6.28125 L 0.171875 -5.46875 L 1.015625 -5.46875 L 1.015625 -0.71875 C 1.015625 -0.078125 1.453125 0.28125 2.234375 0.28125 C 2.5 0.28125 2.71875 0.25 3.046875 0.1875 L 3.046875 -0.640625 C 2.90625 -0.609375 2.765625 -0.59375 2.5625 -0.59375 C 2.140625 -0.59375 2.015625 -0.71875 2.015625 -1.15625 L 2.015625 -5.46875 L 3.046875 -5.46875 Z M 3.046875 -6.28125 "/>
</g>
<g id="glyph-0-8">
<path d="M 3.265625 -6.46875 C 1.484375 -6.46875 0.4375 -5.203125 0.4375 -3.09375 C 0.4375 -0.96875 1.484375 0.28125 3.28125 0.28125 C 5.046875 0.28125 6.125 -0.984375 6.125 -3.046875 C 6.125 -5.234375 5.09375 -6.46875 3.265625 -6.46875 Z M 3.28125 -5.546875 C 4.40625 -5.546875 5.078125 -4.625 5.078125 -3.0625 C 5.078125 -1.578125 4.375 -0.640625 3.28125 -0.640625 C 2.15625 -0.640625 1.46875 -1.578125 1.46875 -3.09375 C 1.46875 -4.625 2.15625 -5.546875 3.28125 -5.546875 Z M 3.28125 -5.546875 "/>
</g>
<g id="glyph-0-9">
<path d="M 3.421875 0 L 5.828125 -6.28125 L 4.703125 -6.28125 L 2.921875 -1.1875 L 1.25 -6.28125 L 0.125 -6.28125 L 2.328125 0 Z M 3.421875 0 "/>
</g>
<g id="glyph-0-10">
<path d="M 6.15625 -2.8125 C 6.15625 -3.765625 6.078125 -4.34375 5.90625 -4.8125 C 5.5 -5.84375 4.53125 -6.46875 3.359375 -6.46875 C 1.609375 -6.46875 0.484375 -5.140625 0.484375 -3.0625 C 0.484375 -0.984375 1.5625 0.28125 3.34375 0.28125 C 4.78125 0.28125 5.765625 -0.546875 6.03125 -1.90625 L 5.015625 -1.90625 C 4.734375 -1.078125 4.171875 -0.640625 3.375 -0.640625 C 2.734375 -0.640625 2.203125 -0.9375 1.859375 -1.46875 C 1.625 -1.828125 1.53125 -2.1875 1.53125 -2.8125 Z M 1.546875 -3.625 C 1.625 -4.78125 2.34375 -5.546875 3.34375 -5.546875 C 4.375 -5.546875 5.078125 -4.75 5.078125 -3.625 Z M 1.546875 -3.625 "/>
</g>
<g id="glyph-0-11">
<path d="M 5.25 -4.53125 C 5.25 -5.765625 4.421875 -6.46875 2.96875 -6.46875 C 1.515625 -6.46875 0.5625 -5.71875 0.5625 -4.546875 C 0.5625 -3.5625 1.0625 -3.09375 2.5625 -2.734375 L 3.484375 -2.515625 C 4.1875 -2.34375 4.46875 -2.09375 4.46875 -1.640625 C 4.46875 -1.046875 3.875 -0.640625 3 -0.640625 C 2.453125 -0.640625 2 -0.796875 1.75 -1.0625 C 1.59375 -1.25 1.53125 -1.421875 1.46875 -1.875 L 0.40625 -1.875 C 0.453125 -0.421875 1.265625 0.28125 2.921875 0.28125 C 4.5 0.28125 5.515625 -0.5 5.515625 -1.71875 C 5.515625 -2.65625 4.984375 -3.171875 3.734375 -3.46875 L 2.765625 -3.703125 C 1.953125 -3.890625 1.609375 -4.15625 1.609375 -4.59375 C 1.609375 -5.1875 2.125 -5.546875 2.9375 -5.546875 C 3.75 -5.546875 4.171875 -5.203125 4.203125 -4.53125 Z M 5.25 -4.53125 "/>
</g>
<g id="glyph-0-12">
<path d="M 1.828125 -8.75 L 0.8125 -8.75 L 0.8125 0 L 1.828125 0 Z M 1.828125 -8.75 "/>
</g>
<g id="glyph-1-0">
<path d="M -2.09375 -3.921875 L 0 -3.921875 L 0 -4.984375 L -2.09375 -4.984375 L -2.09375 -6.234375 L -3.046875 -6.234375 L -3.046875 -4.984375 L -8.671875 -4.984375 L -8.671875 -4.203125 L -3.21875 -0.34375 L -2.09375 -0.34375 Z M -3.046875 -3.921875 L -3.046875 -1.265625 L -6.875 -3.921875 Z M -3.046875 -3.921875 "/>
</g>
<g id="glyph-1-1">
<path d="M -8.515625 -5.71875 L -8.515625 -1.3125 L -3.875 -0.6875 L -3.875 -1.65625 C -4.46875 -2.140625 -4.671875 -2.5625 -4.671875 -3.234375 C -4.671875 -4.375 -3.890625 -5.078125 -2.625 -5.078125 C -1.40625 -5.078125 -0.65625 -4.375 -0.65625 -3.21875 C -0.65625 -2.296875 -1.125 -1.734375 -2.09375 -1.46875 L -2.09375 -0.421875 C -1.390625 -0.5625 -1.0625 -0.6875 -0.75 -0.9375 C -0.09375 -1.421875 0.28125 -2.28125 0.28125 -3.234375 C 0.28125 -4.953125 -0.96875 -6.15625 -2.765625 -6.15625 C -4.453125 -6.15625 -5.609375 -5.046875 -5.609375 -3.40625 C -5.609375 -2.8125 -5.453125 -2.328125 -5.09375 -1.84375 L -7.46875 -2.171875 L -7.46875 -5.71875 Z M -8.515625 -5.71875 "/>
</g>
<g id="glyph-1-2">
<path d="M -6.421875 -5.96875 C -7.84375 -5.765625 -8.671875 -4.859375 -8.671875 -3.5625 C -8.671875 -2.625 -8.21875 -1.78125 -7.4375 -1.28125 C -6.59375 -0.75 -5.53125 -0.515625 -3.953125 -0.515625 C -2.5 -0.515625 -1.578125 -0.71875 -0.796875 -1.234375 C -0.09375 -1.6875 0.28125 -2.4375 0.28125 -3.375 C 0.28125 -4.984375 -0.9375 -6.15625 -2.625 -6.15625 C -4.21875 -6.15625 -5.359375 -5.078125 -5.359375 -3.546875 C -5.359375 -2.71875 -5.046875 -2.046875 -4.40625 -1.59375 C -6.546875 -1.609375 -7.734375 -2.28125 -7.734375 -3.484375 C -7.734375 -4.234375 -7.265625 -4.75 -6.421875 -4.921875 Z M -4.421875 -3.421875 C -4.421875 -4.4375 -3.703125 -5.078125 -2.546875 -5.078125 C -1.453125 -5.078125 -0.65625 -4.359375 -0.65625 -3.390625 C -0.65625 -2.40625 -1.484375 -1.65625 -2.59375 -1.65625 C -3.671875 -1.65625 -4.421875 -2.375 -4.421875 -3.421875 Z M -4.421875 -3.421875 "/>
</g>
<g id="glyph-1-3">
<path d="M -8.515625 -6.234375 L -8.515625 -0.546875 L -7.46875 -0.546875 L -7.46875 -5.140625 C -4.578125 -3.125 -2.796875 -2.296875 0 -1.65625 L 0 -2.78125 C -2.71875 -3.25 -5.0625 -4.3125 -7.625 -6.234375 Z M -8.515625 -6.234375 "/>
</g>
<g id="glyph-1-4">
<path d="M -4.578125 -4.6875 C -5.109375 -5.578125 -5.546875 -5.859375 -6.359375 -5.859375 C -7.734375 -5.859375 -8.671875 -4.8125 -8.671875 -3.296875 C -8.671875 -1.796875 -7.734375 -0.75 -6.375 -0.75 C -5.546875 -0.75 -5.125 -1.015625 -4.578125 -1.890625 C -4.078125 -0.921875 -3.375 -0.4375 -2.40625 -0.4375 C -0.828125 -0.4375 0.28125 -1.609375 0.28125 -3.296875 C 0.28125 -4.984375 -0.828125 -6.15625 -2.40625 -6.15625 C -3.375 -6.15625 -4.078125 -5.671875 -4.578125 -4.6875 Z M -7.734375 -3.296875 C -7.734375 -4.203125 -7.203125 -4.78125 -6.34375 -4.78125 C -5.515625 -4.78125 -4.984375 -4.1875 -4.984375 -3.296875 C -4.984375 -2.40625 -5.515625 -1.828125 -6.359375 -1.828125 C -7.203125 -1.828125 -7.734375 -2.40625 -7.734375 -3.296875 Z M -4.09375 -3.296875 C -4.09375 -4.359375 -3.390625 -5.078125 -2.390625 -5.078125 C -1.34375 -5.078125 -0.65625 -4.375 -0.65625 -3.28125 C -0.65625 -2.25 -1.375 -1.53125 -2.375 -1.53125 C -3.40625 -1.53125 -4.09375 -2.234375 -4.09375 -3.296875 Z M -4.09375 -3.296875 "/>
</g>
<g id="glyph-1-5">
<path d="M -1.984375 -0.640625 C -0.5625 -0.84375 0.28125 -1.75 0.28125 -3.046875 C 0.28125 -4 -0.1875 -4.84375 -0.953125 -5.34375 C -1.8125 -5.875 -2.875 -6.109375 -4.4375 -6.109375 C -5.90625 -6.109375 -6.828125 -5.890625 -7.59375 -5.390625 C -8.296875 -4.921875 -8.671875 -4.171875 -8.671875 -3.234375 C -8.671875 -1.625 -7.46875 -0.453125 -5.78125 -0.453125 C -4.1875 -0.453125 -3.0625 -1.53125 -3.0625 -3.078125 C -3.0625 -3.875 -3.34375 -4.46875 -4.015625 -5.015625 C -1.84375 -5 -0.65625 -4.328125 -0.65625 -3.125 C -0.65625 -2.375 -1.140625 -1.859375 -1.984375 -1.6875 Z M -7.75 -3.234375 C -7.75 -4.21875 -6.921875 -4.953125 -5.8125 -4.953125 C -4.734375 -4.953125 -4 -4.234375 -4 -3.1875 C -4 -2.171875 -4.71875 -1.53125 -5.875 -1.53125 C -6.953125 -1.53125 -7.75 -2.25 -7.75 -3.234375 Z M -7.75 -3.234375 "/>
</g>
<g id="glyph-1-6">
<path d="M -6.1875 -3.109375 L 0 -3.109375 L 0 -4.15625 L -8.671875 -4.15625 L -8.671875 -3.46875 C -7.34375 -3.09375 -7.15625 -2.859375 -6.953125 -1.21875 L -6.1875 -1.21875 Z M -6.1875 -3.109375 "/>
</g>
<g id="glyph-1-7">
<path d="M -8.671875 -3.296875 C -8.671875 -2.515625 -8.3125 -1.78125 -7.734375 -1.34375 C -6.953125 -0.796875 -5.8125 -0.515625 -4.203125 -0.515625 C -1.265625 -0.515625 0.28125 -1.46875 0.28125 -3.296875 C 0.28125 -5.09375 -1.265625 -6.078125 -4.125 -6.078125 C -5.8125 -6.078125 -6.9375 -5.8125 -7.734375 -5.25 C -8.328125 -4.8125 -8.671875 -4.109375 -8.671875 -3.296875 Z M -7.734375 -3.296875 C -7.734375 -4.4375 -6.578125 -5 -4.21875 -5 C -1.75 -5 -0.59375 -4.453125 -0.59375 -3.28125 C -0.59375 -2.15625 -1.796875 -1.59375 -4.1875 -1.59375 C -6.578125 -1.59375 -7.734375 -2.15625 -7.734375 -3.296875 Z M -7.734375 -3.296875 "/>
</g>
<g id="glyph-1-8">
<path d="M -2.625 -5.6875 L 0 -6.59375 L 0 -7.84375 L -8.75 -4.765625 L -8.75 -3.328125 L 0 -0.203125 L 0 -1.390625 L -2.625 -2.3125 Z M -3.5625 -5.375 L -3.5625 -2.59375 L -7.546875 -4.03125 Z M -3.5625 -5.375 "/>
</g>
<g id="glyph-1-9">
<path d="M -8.75 -6.96875 L -8.75 -0.671875 L -7.765625 -0.671875 L -7.765625 -5.59375 L -0.984375 -0.34375 L 0 -0.34375 L 0 -7 L -0.984375 -7 L -0.984375 -1.734375 L -7.734375 -6.96875 Z M -8.75 -6.96875 "/>
</g>
<g id="glyph-1-10">
<path d="M -4.625 -8.515625 L -4.625 -4.859375 L -3.640625 -4.859375 L -3.640625 -7.53125 L -3.390625 -7.53125 C -1.84375 -7.53125 -0.703125 -6.375 -0.703125 -4.78125 C -0.703125 -3.890625 -1.03125 -3.078125 -1.59375 -2.5625 C -2.21875 -1.984375 -3.265625 -1.640625 -4.34375 -1.640625 C -6.484375 -1.640625 -7.90625 -2.875 -7.90625 -4.71875 C -7.90625 -6.046875 -7.21875 -7.015625 -6.09375 -7.25 L -6.09375 -8.390625 C -7.875 -8.078125 -8.890625 -6.734375 -8.890625 -4.734375 C -8.890625 -3.65625 -8.609375 -2.796875 -8.046875 -2.109375 C -7.21875 -1.09375 -5.859375 -0.53125 -4.28125 -0.53125 C -1.59375 -0.53125 0.28125 -2.171875 0.28125 -4.53125 C 0.28125 -5.71875 -0.171875 -6.65625 -1.109375 -7.53125 L 0.046875 -7.796875 L 0.046875 -8.515625 Z M -4.625 -8.515625 "/>
</g>
<g id="glyph-1-11">
<path d="M -3.703125 -2.203125 L -3.703125 -4.953125 C -3.703125 -5.640625 -3.90625 -6.1875 -4.328125 -6.640625 C -4.8125 -7.171875 -5.375 -7.40625 -6.1875 -7.40625 C -7.828125 -7.40625 -8.75 -6.4375 -8.75 -4.703125 L -8.75 -1.09375 L 0 -1.09375 L 0 -2.203125 Z M -4.6875 -2.203125 L -7.765625 -2.203125 L -7.765625 -4.53125 C -7.765625 -5.609375 -7.1875 -6.234375 -6.234375 -6.234375 C -5.265625 -6.234375 -4.6875 -5.609375 -4.6875 -4.53125 Z M -4.6875 -2.203125 "/>
</g>
</g>
</defs>
<rect x="-21.6" y="-21.6" width="259.2" height="259.2" fill="rgb(100%, 100%, 100%)" fill-opacity="1"/>
<path fill="none" stroke-width="0.75" stroke-linecap="round" stroke-linejoin="round" stroke="rgb(0%, 0%, 0%)" stroke-opacity="1" stroke-miterlimit="10" d="M 60.410156 158.398438 L 214.234375 158.398438 "/>
<path fill="none" stroke-width="0.75" stroke-linecap="round" stroke-linejoin="round" stroke="rgb(0%, 0%, 0%)" stroke-opacity="1" stroke-miterlimit="10" d="M 60.410156 158.398438 L 60.410156 165.601562 "/>
<path fill="none" stroke-width="0.75" stroke-linecap="round" stroke-linejoin="round" stroke="rgb(0%, 0%, 0%)" stroke-opacity="1" stroke-miterlimit="10" d="M 86.046875 158.398438 L 86.046875 165.601562 "/>
<path fill="none" stroke-width="0.75" stroke-linecap="round" stroke-linejoin="round" stroke="rgb(0%, 0%, 0%)" stroke-opacity="1" stroke-miterlimit="10" d="M 111.6875 158.398438 L 111.6875 165.601562 "/>
<path fill="none" stroke-width="0.75" stroke-linecap="round" stroke-linejoin="round" stroke="rgb(0%, 0%, 0%)" stroke-opacity="1" stroke-miterlimit="10" d="M 137.324219 158.398438 L 137.324219 165.601562 "/>
<path fill="none" stroke-width="0.75" stroke-linecap="round" stroke-linejoin="round" stroke="rgb(0%, 0%, 0%)" stroke-opacity="1" stroke-miterlimit="10" d="M 162.960938 158.398438 L 162.960938 165.601562 "/>
<path fill="none" stroke-width="0.75" stroke-linecap="round" stroke-linejoin="round" stroke="rgb(0%, 0%, 0%)" stroke-opacity="1" stroke-miterlimit="10" d="M 188.597656 158.398438 L 188.597656 165.601562 "/>
<path fill="none" stroke-width="0.75" stroke-linecap="round" stroke-linejoin="round" stroke="rgb(0%, 0%, 0%)" stroke-opacity="1" stroke-miterlimit="10" d="M 214.234375 158.398438 L 214.234375 165.601562 "/>
<g fill="rgb(0%, 0%, 0%)" fill-opacity="1">
<use xlink:href="#glyph-0-0" x="48.410156" y="184.068359"/>
<use xlink:href="#glyph-0-1" x="55.410156" y="184.068359"/>
<use xlink:href="#glyph-0-0" x="58.410156" y="184.068359"/>
<use xlink:href="#glyph-0-0" x="65.410156" y="184.068359"/>
</g>
<g fill="rgb(0%, 0%, 0%)" fill-opacity="1">
<use xlink:href="#glyph-0-0" x="99.6875" y="184.068359"/>
<use xlink:href="#glyph-0-1" x="106.6875" y="184.068359"/>
<use xlink:href="#glyph-0-2" x="109.6875" y="184.068359"/>
<use xlink:href="#glyph-0-0" x="116.6875" y="184.068359"/>
</g>
<g fill="rgb(0%, 0%, 0%)" fill-opacity="1">
<use xlink:href="#glyph-0-0" x="150.960938" y="184.068359"/>
<use xlink:href="#glyph-0-1" x="157.960938" y="184.068359"/>
<use xlink:href="#glyph-0-3" x="160.960938" y="184.068359"/>
<use xlink:href="#glyph-0-0" x="167.960938" y="184.068359"/>
</g>
<g fill="rgb(0%, 0%, 0%)" fill-opacity="1">
<use xlink:href="#glyph-0-0" x="202.234375" y="184.068359"/>
<use xlink:href="#glyph-0-1" x="209.234375" y="184.068359"/>
<use xlink:href="#glyph-0-4" x="212.234375" y="184.068359"/>
<use xlink:href="#glyph-0-0" x="219.234375" y="184.068359"/>
</g>
<path fill="none" stroke-width="0.75" stroke-linecap="round" stroke-linejoin="round" stroke="rgb(0%, 0%, 0%)" stroke-opacity="1" stroke-miterlimit="10" d="M 57.601562 150.144531 L 57.601562 16.597656 "/>
<path fill="none" stroke-width="0.75" stroke-linecap="round" stroke-linejoin="round" stroke="rgb(0%, 0%, 0%)" stroke-opacity="1" stroke-miterlimit="10" d="M 57.601562 150.144531 L 50.398438 150.144531 "/>
<path fill="none" stroke-width="0.75" stroke-linecap="round" stroke-linejoin="round" stroke="rgb(0%, 0%, 0%)" stroke-opacity="1" stroke-miterlimit="10" d="M 57.601562 127.886719 L 50.398438 127.886719 "/>
<path fill="none" stroke-width="0.75" stroke-linecap="round" stroke-linejoin="round" stroke="rgb(0%, 0%, 0%)" stroke-opacity="1" stroke-miterlimit="10" d="M 57.601562 105.628906 L 50.398438 105.628906 "/>
<path fill="none" stroke-width="0.75" stroke-linecap="round" stroke-linejoin="round" stroke="rgb(0%, 0%, 0%)" stroke-opacity="1" stroke-miterlimit="10" d="M 57.601562 83.371094 L 50.398438 83.371094 "/>
<path fill="none" stroke-width="0.75" stroke-linecap="round" stroke-linejoin="round" stroke="rgb(0%, 0%, 0%)" stroke-opacity="1" stroke-miterlimit="10" d="M 57.601562 61.113281 L 50.398438 61.113281 "/>
<path fill="none" stroke-width="0.75" stroke-linecap="round" stroke-linejoin="round" stroke="rgb(0%, 0%, 0%)" stroke-opacity="1" stroke-miterlimit="10" d="M 57.601562 38.855469 L 50.398438 38.855469 "/>
<path fill="none" stroke-width="0.75" stroke-linecap="round" stroke-linejoin="round" stroke="rgb(0%, 0%, 0%)" stroke-opacity="1" stroke-miterlimit="10" d="M 57.601562 16.597656 L 50.398438 16.597656 "/>
<g fill="rgb(0%, 0%, 0%)" fill-opacity="1">
<use xlink:href="#glyph-1-0" x="40.068359" y="153.644531"/>
</g>
<g fill="rgb(0%, 0%, 0%)" fill-opacity="1">
<use xlink:href="#glyph-1-1" x="40.068359" y="131.386719"/>
</g>
<g fill="rgb(0%, 0%, 0%)" fill-opacity="1">
<use xlink:href="#glyph-1-2" x="40.068359" y="109.128906"/>
</g>
<g fill="rgb(0%, 0%, 0%)" fill-opacity="1">
<use xlink:href="#glyph-1-3" x="40.068359" y="86.871094"/>
</g>
<g fill="rgb(0%, 0%, 0%)" fill-opacity="1">
<use xlink:href="#glyph-1-4" x="40.068359" y="64.613281"/>
</g>
<g fill="rgb(0%, 0%, 0%)" fill-opacity="1">
<use xlink:href="#glyph-1-5" x="40.068359" y="42.355469"/>
</g>
<g fill="rgb(0%, 0%, 0%)" fill-opacity="1">
<use xlink:href="#glyph-1-6" x="40.068359" y="23.597656"/>
<use xlink:href="#glyph-1-7" x="40.068359" y="16.597656"/>
</g>
<path fill="none" stroke-width="0.75" stroke-linecap="round" stroke-linejoin="round" stroke="rgb(0%, 0%, 0%)" stroke-opacity="1" stroke-miterlimit="10" d="M 57.601562 158.398438 L 216 158.398438 L 216 0 L 57.601562 0 Z M 57.601562 158.398438 "/>
<g fill="rgb(0%, 0%, 0%)" fill-opacity="1">
<use xlink:href="#glyph-0-5" x="101.300781" y="212.869141"/>
<use xlink:href="#glyph-0-5" x="111.300781" y="212.869141"/>
<use xlink:href="#glyph-0-6" x="121.300781" y="212.869141"/>
<use xlink:href="#glyph-0-7" x="124.300781" y="212.869141"/>
<use xlink:href="#glyph-0-8" x="127.300781" y="212.869141"/>
<use xlink:href="#glyph-0-6" x="134.300781" y="212.869141"/>
<use xlink:href="#glyph-0-9" x="137.300781" y="212.869141"/>
<use xlink:href="#glyph-0-10" x="143.300781" y="212.869141"/>
<use xlink:href="#glyph-0-11" x="150.300781" y="212.869141"/>
<use xlink:href="#glyph-0-11" x="156.300781" y="212.869141"/>
<use xlink:href="#glyph-0-10" x="162.300781" y="212.869141"/>
<use xlink:href="#glyph-0-12" x="169.300781" y="212.869141"/>
</g>
<g fill="rgb(0%, 0%, 0%)" fill-opacity="1">
<use xlink:href="#glyph-1-8" x="11.267578" y="98.699219"/>
<use xlink:href="#glyph-1-9" x="11.267578" y="90.699219"/>
<use xlink:href="#glyph-1-10" x="11.267578" y="83.699219"/>
<use xlink:href="#glyph-1-11" x="11.267578" y="74.699219"/>
<use xlink:href="#glyph-1-6" x="11.267578" y="66.699219"/>
</g>
<path fill="none" stroke-width="0.75" stroke-linecap="round" stroke-linejoin="round" stroke="rgb(54.117647%, 16.862745%, 88.627451%)" stroke-opacity="1" stroke-miterlimit="10" d="M 63.464844 125.34375 L 66.511719 126.757812 L 69.589844 123.285156 L 72.664062 126.210938 L 75.691406 126.367188 L 78.765625 125.707031 L 81.792969 124.816406 L 84.867188 124.167969 L 87.945312 127.570312 L 90.96875 130.484375 L 94.046875 132.296875 L 97.125 134.113281 L 100.148438 134.265625 L 103.226562 141.507812 L 106.25 142.074219 L 109.328125 140.898438 L 112.199219 145.136719 L 115.273438 147.222656 L 118.351562 147.191406 L 121.429688 152.535156 L 124.503906 150.917969 L 127.582031 151.851562 L 130.65625 149.558594 L 133.734375 150.191406 L 136.808594 148.738281 L 139.886719 147.253906 L 142.964844 144.449219 L 146.039062 147.210938 L 149.117188 144.179688 L 152.191406 140.574219 L 155.269531 141.371094 L 158.347656 141.316406 L 161.421875 142.582031 L 164.5 140.367188 L 167.574219 139.765625 L 170.652344 138.875 L 173.726562 137.832031 L 176.804688 138.152344 L 179.882812 133.558594 L 182.957031 137.1875 L 185.519531 134.871094 L 188.597656 134.652344 L 191.675781 135.328125 L 194.75 142.15625 L 197.828125 136.339844 L 200.902344 136.804688 L 203.980469 130.480469 L 207.058594 130.875 L 210.132812 135.527344 "/>
<path fill="none" stroke-width="0.75" stroke-linecap="round" stroke-linejoin="round" stroke="rgb(100%, 25.098039%, 25.098039%)" stroke-opacity="1" stroke-miterlimit="10" d="M 66.511719 57.554688 L 69.589844 45.660156 L 72.664062 55.429688 L 75.691406 47.988281 L 78.765625 62.789062 L 81.792969 51.964844 L 84.867188 56.453125 L 87.945312 57 L 90.96875 60.214844 L 94.046875 62.28125 L 97.125 62.308594 L 100.148438 60.890625 L 103.226562 60.953125 L 106.25 61.609375 L 109.328125 65.488281 L 112.199219 62.4375 L 115.273438 73.46875 L 118.351562 69.273438 L 121.429688 68.753906 L 124.503906 66.785156 L 127.582031 73.039062 L 130.65625 71.136719 L 133.734375 66.617188 L 136.808594 68.6875 L 139.886719 66.636719 L 142.964844 69.386719 L 146.039062 71.394531 L 149.117188 69.324219 L 152.191406 70.089844 L 155.269531 67.054688 L 158.347656 74.425781 L 161.421875 74.5625 L 164.5 84.914062 L 167.574219 65.929688 L 170.652344 74.804688 L 173.726562 74.382812 L 176.804688 78.867188 L 179.882812 77.339844 L 182.957031 79.492188 L 185.519531 80.972656 L 188.597656 76.882812 L 191.675781 80.429688 L 194.75 81.125 L 197.828125 78.101562 L 200.902344 73.402344 L 203.980469 78.867188 L 207.058594 76.109375 L 210.132812 73.917969 "/>
<path fill="none" stroke-width="0.75" stroke-linecap="round" stroke-linejoin="round" stroke="rgb(20%, 20%, 20%)" stroke-opacity="1" stroke-miterlimit="10" d="M 63.464844 33.476562 L 66.511719 20.058594 L 69.589844 11.757812 L 72.664062 5.867188 L 75.691406 13.53125 L 78.765625 12.253906 L 81.792969 20.222656 L 84.867188 27.796875 L 87.945312 33.746094 L 90.96875 32.496094 L 94.046875 42.109375 L 97.125 38.890625 L 100.148438 49.3125 L 103.226562 55.9375 L 106.25 58.433594 L 109.328125 63.96875 L 112.199219 66.960938 L 115.273438 68.292969 L 118.351562 67.472656 L 121.429688 77.144531 L 124.503906 72.777344 L 127.582031 73.152344 L 130.65625 74.414062 L 133.734375 76.050781 L 136.808594 71.027344 L 139.886719 73.9375 L 142.964844 65.589844 L 146.039062 69.132812 L 149.117188 66.886719 L 152.191406 75.964844 L 155.269531 74.59375 L 158.347656 75.089844 L 161.421875 72.289062 L 164.5 69.464844 L 167.574219 73.160156 L 170.652344 63.761719 L 173.726562 76.527344 L 176.804688 71.015625 L 179.882812 69.855469 L 182.957031 69.515625 L 185.519531 68.1875 L 188.597656 71.722656 L 191.675781 71.136719 L 194.75 66.148438 L 197.828125 72.339844 L 200.902344 69.640625 L 203.980469 72.300781 L 207.058594 54.726562 L 210.132812 67.738281 "/>
<path fill="none" stroke-width="0.75" stroke-linecap="round" stroke-linejoin="round" stroke="rgb(30.980392%, 58.039216%, 80.392157%)" stroke-opacity="1" stroke-miterlimit="10" d="M 63.464844 118.585938 L 66.511719 110.890625 L 69.589844 102.457031 L 72.664062 108.332031 L 75.691406 103.585938 L 78.765625 111.730469 L 81.792969 110.636719 L 84.867188 116.0625 L 87.945312 121.027344 L 90.96875 122.105469 L 94.046875 124.273438 L 97.125 126.027344 L 100.148438 129.066406 L 103.226562 133.207031 L 106.25 135.726562 L 109.328125 133.933594 L 112.199219 138.96875 L 115.273438 136.957031 L 118.351562 139.941406 L 121.429688 139.9375 L 124.503906 141.242188 L 127.582031 140.898438 L 130.65625 135.9375 L 133.734375 141.648438 L 136.808594 137.882812 L 139.886719 140.5 L 142.964844 135.167969 L 146.039062 135.453125 L 149.117188 133.324219 L 152.191406 142.835938 L 155.269531 139.515625 L 158.347656 142.320312 L 161.421875 141.542969 L 164.5 137.769531 L 167.574219 132.203125 L 170.652344 133.265625 L 173.726562 142.425781 L 176.804688 133.894531 L 179.882812 130.648438 L 182.957031 129.261719 L 185.519531 139.539062 L 188.597656 129.433594 L 191.675781 132.746094 L 194.75 138.027344 L 197.828125 141.132812 L 200.902344 130.675781 L 203.980469 136.964844 L 207.058594 130.707031 L 210.132812 131.875 "/>
</svg>
